HIERARCHY
ROOT Hips
{
	OFFSET 0.00000 0.00000 0.00000
	CHANNELS 6 Xposition Yposition Zposition Zrotation Yrotation Xrotation 
	JOINT LHipJoint
	{
		OFFSET 0 0 0
		CHANNELS 3 Zrotation Yrotation Xrotation
		JOINT LeftUpLeg
		{
			OFFSET 1.37959 -1.78713 0.86582
			CHANNELS 3 Zrotation Yrotation Xrotation
			JOINT LeftLeg
			{
				OFFSET 2.54611 -6.99539 0.00000
				CHANNELS 3 Zrotation Yrotation Xrotation
				JOINT LeftFoot
				{
					OFFSET 2.59951 -7.14211 0.00000
					CHANNELS 3 Zrotation Yrotation Xrotation
					JOINT LeftToeBase
					{
						OFFSET 0.18493 -0.50810 1.96120
						CHANNELS 3 Zrotation Yrotation Xrotation
						End Site
						{
							OFFSET 0.00000 -0.00000 1.02054
						}
					}
				}
			}
		}
	}
	JOINT RHipJoint
	{
		OFFSET 0 0 0
		CHANNELS 3 Zrotation Yrotation Xrotation
		JOINT RightUpLeg
		{
			OFFSET -1.33564 -1.78713 0.86582
			CHANNELS 3 Zrotation Yrotation Xrotation
			JOINT RightLeg
			{
				OFFSET -2.52705 -6.94302 0.00000
				CHANNELS 3 Zrotation Yrotation Xrotation
				JOINT RightFoot
				{
					OFFSET -2.55964 -7.03257 0.00000
					CHANNELS 3 Zrotation Yrotation Xrotation
					JOINT RightToeBase
					{
						OFFSET -0.25804 -0.70896 2.12109
						CHANNELS 3 Zrotation Yrotation Xrotation
						End Site
						{
							OFFSET -0.00000 -0.00000 1.11821
						}
					}
				}
			}
		}
	}
	JOINT LowerBack
	{
		OFFSET 0 0 0
		CHANNELS 3 Zrotation Yrotation Xrotation
		JOINT Spine
		{
			OFFSET -0.02031 2.24248 -0.18900
			CHANNELS 3 Zrotation Yrotation Xrotation
			JOINT Spine1
			{
				OFFSET 0.08342 2.24689 -0.03799
				CHANNELS 3 Zrotation Yrotation Xrotation
				JOINT Neck
				{
					OFFSET 0 0 0
					CHANNELS 3 Zrotation Yrotation Xrotation
					JOINT Neck1
					{
						OFFSET -0.11607 1.55844 0.24628
						CHANNELS 3 Zrotation Yrotation Xrotation
						JOINT Head
						{
							OFFSET 0.06877 1.60174 -0.17013
							CHANNELS 3 Zrotation Yrotation Xrotation
							End Site
							{
								OFFSET 0.03358 1.61266 -0.08543
							}
						}
					}
				}
				JOINT LeftShoulder
				{
					OFFSET 0 0 0
					CHANNELS 3 Zrotation Yrotation Xrotation
					JOINT LeftArm
					{
						OFFSET 3.47537 0.55866 -0.72348
						CHANNELS 3 Zrotation Yrotation Xrotation
						JOINT LeftForeArm
						{
							OFFSET 5.38154 -0.00000 0.00000
							CHANNELS 3 Zrotation Yrotation Xrotation
							JOINT LeftHand
							{
								OFFSET 3.33312 -0.00000 0.00000
								CHANNELS 3 Zrotation Yrotation Xrotation
								JOINT LeftFingerBase
								{
									OFFSET 0 0 0
									CHANNELS 3 Zrotation Yrotation Xrotation
									JOINT LeftHandIndex1
									{
										OFFSET 0.71079 -0.00000 0.00000
										CHANNELS 3 Zrotation Yrotation Xrotation
										End Site
										{
											OFFSET 0.57306 -0.00000 0.00000
										}
									}
								}
								JOINT LThumb
								{
									OFFSET 0 0 0
									CHANNELS 3 Zrotation Yrotation Xrotation
									End Site
									{
										OFFSET 0.58181 -0.00000 0.58181
									}
								}
							}
						}
					}
				}
				JOINT RightShoulder
				{
					OFFSET 0 0 0
					CHANNELS 3 Zrotation Yrotation Xrotation
					JOINT RightArm
					{
						OFFSET -3.27844 0.90739 -0.35708
						CHANNELS 3 Zrotation Yrotation Xrotation
						JOINT RightForeArm
						{
							OFFSET -5.16954 -0.00000 0.00000
							CHANNELS 3 Zrotation Yrotation Xrotation
							JOINT RightHand
							{
								OFFSET -3.38287 -0.00000 0.00000
								CHANNELS 3 Zrotation Yrotation Xrotation
								JOINT RightFingerBase
								{
									OFFSET 0 0 0
									CHANNELS 3 Zrotation Yrotation Xrotation
									JOINT RightHandIndex1
									{
										OFFSET -0.81797 -0.00000 0.00000
										CHANNELS 3 Zrotation Yrotation Xrotation
										End Site
										{
											OFFSET -0.65947 -0.00000 0.00000
										}
									}
								}
								JOINT RThumb
								{
									OFFSET 0 0 0
									CHANNELS 3 Zrotation Yrotation Xrotation
									End Site
									{
										OFFSET -0.66953 -0.00000 0.66953
									}
								}
							}
						}
					}
				}
			}
		}
	}
}
MOTION
Frames: 10
Frame Time: 0.047619
0.00 0.00 0.00 0 0 0 0 0 0 -21 0 0 0 0 0 0 0 0 0 0 0 0 0 0 21 0 0 0 0 0 0 0 0 0 0 0 0 0 0 0 0 0 0 0 0 0 0 -16 0 0 21 0 0 11 0 0 0 -8 0 0 0 0 0 0 0 0 0 0 0 0 0 0 0 0 0 0 0 0 8 0 0 0 0 0 0 0 0 0 0 0 0 0 0 0 0 0
0.00 0.00 0.00 -3.0143 1.0308 0.0647 0.0000 0.0000 0.0000 -10.8824 -5.4045 -2.8372 1.1825 6.9013 19.4233 0.6485 -1.5755 -14.7556 0.4455 -4.2823 -11.8722 0.0000 0.0000 0.0000 19.8189 -1.8724 0.7433 -0.3443 -3.7703 10.4314 -0.1309 -6.7882 -12.3687 -0.0497 1.4380 -3.9548 0.4440 -0.7249 2.1713 2.9288 -0.9071 -0.4563 2.7913 -0.4436 -1.6451 -10.4626 -4.1322 -18.8662 8.4706 -4.5168 16.9933 4.0291 -1.9198 8.8622 0.0000 0.0000 0.0000 -79.9022 -2.9521 30.7720 60.5812 -56.4628 -34.8251 -0.0000 -0.0000 28.1466 -2.4606 43.5437 -1.6957 -7.1250 0.0000 -0.0000 -52.9270 66.0187 -30.3632 0.0000 0.0000 0.0000 77.9920 -0.5193 27.1246 -81.6311 59.7337 -52.7588 0.0000 -0.0000 -3.6699 -19.6245 23.8443 -8.2023 7.1250 -0.0000 -0.0000 5.9348 -4.9571 5.4296
0.00 0.00 0.00 -3.3904 -0.0107 0.6569 0.0000 0.0000 0.0000 -10.3900 -5.0629 -3.7586 1.2247 7.0190 19.7717 0.6548 -1.1153 -14.9466 0.5331 -4.6788 -12.9946 0.0000 0.0000 0.0000 20.2711 -0.7510 -0.1398 -0.3712 -3.9132 10.8326 -0.1228 -6.6584 -12.0784 -0.0457 1.3792 -3.7927 0.8504 -0.2973 1.9000 3.1482 -0.3169 -0.8348 2.7691 -0.1487 -1.9094 -11.0059 -4.3593 -19.4493 8.5275 -4.6786 17.9910 4.1325 -2.0197 9.3431 -0.0000 0.0000 0.0000 -77.7922 -7.7113 28.2874 74.6015 -59.0848 -46.7055 -0.0000 -0.0000 34.0628 -0.0308 43.8796 -0.0214 -7.1250 0.0000 -0.0000 -51.3701 66.9663 -30.3049 -0.0000 0.0000 0.0000 75.0019 3.4949 26.2180 -100.5303 59.5768 -69.1066 0.0000 -0.0000 -0.9947 -21.3292 25.4032 -9.5091 7.1250 -0.0000 -0.0000 5.0424 -3.0569 4.7852
0.00 0.00 0.00 -2.7098 -0.2011 0.5816 0.0000 0.0000 0.0000 -11.0511 -4.4677 -3.7715 1.1766 6.8846 19.3741 0.6000 -1.2932 -14.2459 0.6037 -4.9735 -13.8329 0.0000 0.0000 0.0000 19.5891 -0.2556 -0.8708 -0.4815 -4.4499 12.3460 -0.1685 -6.4800 -12.6854 -0.0676 1.6773 -4.6147 -0.2342 -0.2181 2.0126 3.4539 -0.2322 -0.8676 3.6962 -0.0896 -2.0052 -11.2414 -4.3464 -19.4508 8.1448 -4.4942 17.8261 4.0583 -1.9903 9.2630 -0.0000 0.0000 0.0000 -73.4889 -13.6600 25.4051 93.2001 -59.9613 -62.7710 -0.0000 -0.0000 40.0451 6.0529 45.2002 4.3029 -7.1250 0.0000 -0.0000 -48.4727 69.7439 -31.0845 -0.0000 0.0000 0.0000 70.1686 11.2657 23.6802 -116.8430 57.0941 -83.0199 0.0000 0.0000 3.8606 -23.6556 27.1214 -11.2931 7.1250 -0.0000 -0.0000 3.8500 -0.8246 3.8028
0.00 0.00 0.00 -2.3574 -0.2995 0.4851 0.0000 0.0000 0.0000 -11.4673 -3.9832 -4.1184 1.1882 6.9174 19.4708 0.5939 -1.7305 -14.0674 0.6068 -4.9860 -13.8686 0.0000 0.0000 0.0000 19.0866 -0.0106 -1.5209 -0.5745 -4.8539 13.4923 -0.2025 -6.2820 -13.0459 -0.0394 1.2812 -3.5228 -0.1915 -0.2691 2.4621 3.3473 -0.2806 -1.3305 3.5717 -0.1043 -2.7324 -10.5158 -3.9484 -19.5564 7.3373 -4.0031 18.6958 3.7366 -1.8055 9.4976 0.0000 0.0000 0.0000 -64.0500 -23.7846 16.9587 112.0379 -58.0829 -78.9626 -0.0000 -0.0000 45.1626 8.7698 43.8459 6.0998 -7.1250 0.0000 -0.0000 -43.0780 69.7493 -27.1779 0.0000 0.0000 0.0000 62.7279 22.9323 17.1889 -129.2474 53.2946 -93.2236 0.0000 0.0000 10.3606 -23.9248 28.1433 -11.8193 7.1250 -0.0000 -0.0000 3.8300 0.2966 3.8584
0.00 0.00 0.00 -1.5307 -1.9819 0.9566 0.0000 0.0000 0.0000 -13.2710 -2.2940 -5.9442 1.4035 7.4939 21.1872 0.6466 -2.2383 -14.5908 0.5039 -4.5507 -12.6313 0.0000 0.0000 0.0000 17.1636 1.3515 -2.7523 -0.7295 -5.4571 15.2172 -0.2527 -5.9170 -13.4901 -0.1249 2.2781 -6.2748 -1.2881 -0.3200 2.9130 3.7867 -0.3971 -0.4670 4.6534 -0.1609 -2.0800 -8.8702 -2.6397 -22.8492 5.5438 -1.9559 18.8333 3.1252 -0.8933 9.8940 0.0000 -0.0000 0.0000 -46.7282 -30.6796 14.2822 127.7076 -53.8792 -91.9844 -0.0000 -0.0000 12.8535 5.5556 29.9177 2.7774 -7.1250 0.0000 -0.0000 -28.2635 57.6915 -9.2712 0.0000 -0.0000 0.0000 37.0384 30.8057 6.8886 -125.7734 54.5642 -90.4152 0.0000 0.0000 4.8976 -28.7447 39.1906 -19.1162 7.1250 -0.0000 -0.0000 3.2776 12.8782 3.9313
0.00 0.00 0.00 -2.4130 -1.2598 1.6647 0.0000 0.0000 0.0000 -11.9422 -2.7610 -7.8020 1.6423 8.0775 22.9496 0.7128 -2.9976 -15.2145 0.5206 -4.6244 -12.8402 0.0000 0.0000 0.0000 18.3487 1.4144 -4.4307 -0.9002 -6.0469 16.9206 -0.3155 -5.8191 -14.3380 -0.1553 2.5393 -6.9986 -0.7452 -0.3825 4.1660 4.3223 -0.4440 -0.0278 4.9196 -0.1899 -2.3274 -9.2694 -2.8728 -24.8205 5.6249 -1.9328 17.7188 3.2083 -0.8610 9.8461 0.0000 0.0000 0.0000 -15.2050 -15.8940 32.2602 130.6551 -52.7279 -94.3480 -0.0000 0.0000 -4.1775 13.6080 30.4013 6.9841 -7.1250 0.0000 -0.0000 -20.4485 59.9189 -7.6368 0.0000 0.0000 0.0000 5.8390 13.9687 17.6190 -129.0511 53.3711 -93.0662 0.0000 -0.0000 -6.8072 -47.1013 42.7156 -36.1308 7.1250 -0.0000 -0.0000 -4.4630 23.4887 -5.8849
0.00 0.00 0.00 -1.8778 -1.2797 1.7225 0.0000 0.0000 0.0000 -12.3723 -3.1457 -8.9019 1.9244 8.7067 24.8822 0.8103 -3.6414 -16.1689 0.2689 -3.3357 -9.2147 0.0000 0.0000 0.0000 17.8019 2.0930 -5.6211 -1.1649 -6.8515 19.2761 -0.4109 -5.6599 -15.5086 -0.0595 1.5735 -4.3283 -1.2973 -0.3690 7.3307 4.2553 -0.4093 -0.5420 5.2272 -0.1165 -4.6443 -8.8825 -2.3638 -22.3611 5.0553 -1.4465 16.2601 2.9848 -0.6814 8.8625 0.0000 -0.0000 0.0000 -12.1075 -0.1795 26.8451 143.4130 -45.9127 -104.0573 -0.0000 0.0000 -12.8166 6.3467 24.3738 2.6281 -7.1250 0.0000 -0.0000 -23.6831 52.8876 -4.8122 0.0000 -0.0000 0.0000 0.6045 3.9327 20.4362 -140.8452 47.5611 -102.1871 0.0000 -0.0000 -20.8240 -16.6839 39.0585 -10.6943 7.1250 -0.0000 -0.0000 9.4368 9.8078 11.0443
0.00 0.00 0.00 -2.9250 -1.4260 2.0513 0.0000 0.0000 0.0000 -10.7896 -2.4143 -10.4881 2.1843 9.2399 26.5486 0.8186 -4.3361 -16.1843 0.5147 -4.5984 -12.7666 0.0000 0.0000 0.0000 19.1498 1.8839 -7.1200 -1.3717 -7.4120 20.9419 -0.4825 -4.9340 -15.8592 -0.1234 2.2647 -6.2378 -0.7003 -0.1843 7.3263 3.9494 -0.1649 0.8097 4.5145 -0.0505 -3.2596 -8.0941 -2.2905 -22.3742 5.7439 -1.6888 14.2054 3.0332 -0.6463 8.1788 0.0000 -0.0000 0.0000 -58.9227 -4.7645 8.2641 153.0450 -38.1363 -110.5287 -0.0000 0.0000 -4.2328 8.4370 21.2887 3.0826 -7.1250 0.0000 -0.0000 -20.0870 50.3728 -2.7570 0.0000 -0.0000 0.0000 51.3812 6.0992 12.7721 -153.2786 37.9122 -110.6726 0.0000 -0.0000 -22.1515 -20.5856 38.8228 -13.2496 7.1250 -0.0000 -0.0000 7.3843 10.4030 8.6618
0.00 0.00 0.00 -2.2376 -1.3600 1.1244 0.0000 0.0000 0.0000 -11.1673 -1.7971 -11.6763 2.7828 10.3349 30.0681 1.0264 -6.6619 -18.0816 0.3410 -3.7523 -10.3808 0.0000 0.0000 0.0000 18.2571 0.7758 -9.1816 -2.0343 -8.9371 25.5988 -0.7292 -2.9366 -17.4560 -0.2511 3.2242 -8.9037 -1.8935 0.2781 7.4850 3.8865 0.3178 2.3476 5.0733 0.1526 -1.8000 -9.5614 -3.1872 -23.4491 5.9826 -2.3835 14.2087 3.2594 -1.0175 8.4334 0.0000 -0.0000 0.0000 -82.9869 1.5921 31.8166 151.0722 -39.9564 -109.2857 -0.0000 0.0000 -20.9893 8.8123 21.9017 3.3096 -7.1250 0.0000 -0.0000 -20.0288 51.0087 -3.0702 0.0000 -0.0000 0.0000 73.0440 -2.5821 32.3089 -153.9601 37.2481 -111.0882 0.0000 -0.0000 -22.2659 -18.6899 40.5683 -12.4077 7.1250 -0.0000 -0.0000 8.6662 11.7050 10.3504
